<svg xmlns="http://www.w3.org/2000/svg" viewBox="0 0 268.1 100" role="img" aria-label="RUMBLE"><title>RUMBLE</title><path fill="currentColor" d="M4.3 75.3 4.4 77.0 5.300000000000001 77.9 15.100000000000001 77.5 16.1 68.4 15.8 61.599999999999994V53.4L14.200000000000001 31.599999999999994H21.900000000000002L23.400000000000002 40.0L27.6 59.8L29.0 64.7L33.6 78.1H43.800000000000004L43.0 72.6L42.1 71.6L42.300000000000004 70.2L41.6 66.1L40.900000000000006 65.4L41.2 65.0L40.2 59.7L36.0 43.3L33.6 31.799999999999997L34.300000000000004 31.099999999999994H36.9L43.1 31.5L43.800000000000004 31.099999999999994L44.1 30.599999999999994L42.400000000000006 15.5L42.7 14.799999999999997V12.099999999999994L41.400000000000006 6.5V4.099999999999994H3.3000000000000003V41.1L2.8000000000000003 43.8L3.5 44.8V49.9L3.0 50.4L4.1000000000000005 51.099999999999994V64.1L3.4000000000000004 65.1L4.3 66.5ZM13.8 21.699999999999996 14.4 20.299999999999997V18.199999999999996L13.8 15.199999999999996H32.4L32.2 18.799999999999997L32.4 21.699999999999996ZM4.2 75.1V75.3L4.3 75.2Z M77.30000000000001 4.8999999999999915V66.1L76.4 67.3H61.2L62.00000000000001 53.099999999999994L62.400000000000006 52.599999999999994L61.2 37.8V4.8999999999999915H51.300000000000004V57.9L50.1 66.3L50.50000000000001 67.5V78.3L58.60000000000001 77.7H89.10000000000001V9.5L89.80000000000001 4.8999999999999915Z M136.0 36.199999999999996 136.70000000000002 34.5 136.10000000000002 33.4V23.599999999999994L135.5 21.599999999999994L136.0 21.099999999999994V20.599999999999994H135.70000000000002L133.70000000000002 4.0H124.0L121.30000000000001 11.700000000000003L120.2 12.799999999999997L117.60000000000001 25.199999999999996L116.80000000000001 27.099999999999994V27.799999999999997L115.2 21.799999999999997L107.0 3.700000000000003L100.10000000000001 4.0L99.30000000000001 4.599999999999994L97.80000000000001 8.399999999999991V72.5L99.60000000000001 78.2H108.10000000000001L108.5 77.3L109.5 68.2V52.2L108.7 36.199999999999996L115.10000000000001 53.9L116.5 59.599999999999994L118.0 60.0L119.60000000000001 59.2L120.10000000000001 54.099999999999994L121.60000000000001 49.8L122.4 45.199999999999996L124.60000000000001 38.0L123.80000000000001 50.0V77.5L124.9 78.2L126.60000000000001 78.8H134.3L134.9 77.5V71.4L135.60000000000002 70.4V64.4L136.20000000000002 59.0L135.8 58.599999999999994L136.0 56.4L136.4 56.5V55.3L135.8 54.5L136.10000000000002 52.599999999999994V48.9L136.4 48.5Z M182.6 76.5V35.699999999999996L182.1 35.099999999999994L174.7 35.4V3.700000000000003H150.7L143.29999999999998 3.200000000000003L143.5 5.299999999999997V14.0L142.6 22.0V28.5L142.29999999999998 29.699999999999996L144.1 31.299999999999997V76.5ZM165.7 66.6H156.9L154.7 66.3V48.7L155.0 46.9H161.6L170.3 46.099999999999994V57.4L171.0 66.3ZM164.2 15.399999999999999V35.9H155.0L155.1 34.599999999999994L154.2 34.3L155.1 33.4L154.5 32.0L155.1 31.099999999999994L154.5 29.799999999999997V28.599999999999994L154.79999999999998 28.4V14.199999999999996H163.6Z M228.70000000000002 65.9H216.70000000000002L216.20000000000002 65.4L215.60000000000002 65.3L215.40000000000003 66.2L200.60000000000002 66.8L200.50000000000003 66.2L199.8 65.7L200.3 63.4L200.70000000000002 57.099999999999994V37.9L199.90000000000003 37.0V13.0L198.3 12.899999999999991V9.599999999999994L198.90000000000003 4.3999999999999915H187.50000000000003L187.90000000000003 6.599999999999994L188.40000000000003 17.4V78.0H228.70000000000002Z M267.20000000000005 67.5H242.3L241.9 63.2L242.20000000000002 60.0V51.8L241.00000000000003 45.3H259.1L258.6 38.199999999999996L259.0 37.8L258.8 33.5L252.3 34.199999999999996H242.3L241.50000000000003 33.5V26.599999999999994L241.00000000000003 22.799999999999997V15.799999999999997L241.60000000000002 15.199999999999996L245.70000000000002 15.0H264.90000000000003L266.5 15.699999999999996V5.099999999999994L264.40000000000003 4.299999999999997H230.3L231.20000000000002 4.700000000000003V70.0L232.00000000000003 73.5V78.0H257.0L260.90000000000003 77.4L261.8 78.0L263.3 77.7L267.20000000000005 77.9Z"/></svg>